<svg width="115" height="40" viewBox="0 0 115 40" fill="none" xmlns="http://www.w3.org/2000/svg">
<g clip-path="url(#clip0_15503_16)">
<path d="M20.5938 8.12908C20.2517 7.83393 19.7483 7.83393 19.4063 8.12908L5.70498 19.9467C5.50526 20.1187 5.38989 20.3704 5.38989 20.636V37.7262C5.38989 38.2298 5.79691 38.6359 6.2988 38.6359H33.7014C34.2031 38.6359 34.6103 38.2296 34.6103 37.7262V20.636C34.6103 20.3703 34.4949 20.1185 34.2952 19.9467L20.5938 8.12908ZM32.7918 36.8182H7.20841V21.0509L20.0001 10.0162L32.7918 21.0509V36.8182Z" fill="#19BCE4"/>
<path d="M39.3667 17.4382L21.1855 1.80285C20.5032 1.21773 19.4962 1.21773 18.814 1.80285L0.632553 17.4382C-0.128707 18.0926 -0.215444 19.2403 0.43901 20.0024C1.09529 20.7628 2.24279 20.8497 3.00321 20.1951L19.9996 5.57884L36.9961 20.1951C37.3398 20.4904 37.7608 20.6362 38.1801 20.6362C38.6922 20.6362 39.2008 20.4209 39.5603 20.0024C40.2149 19.2403 40.128 18.0926 39.3667 17.4382Z" fill="#19BCE4"/>
<path d="M15.5893 18.3579C13.3567 18.3579 10.8445 19.5784 10.4904 23.0003C9.78024 29.863 19.3775 35.0054 19.7855 35.2224C19.8523 35.2571 19.9253 35.2745 19.9982 35.2745C20.0703 35.2745 20.144 35.2571 20.2109 35.2224C20.6189 35.0054 30.2161 29.863 29.5077 23.0003C29.1545 19.5784 26.6415 18.3579 24.408 18.3579C22.8255 18.3579 21.2074 18.9186 19.9983 19.87C18.7889 18.9186 17.1701 18.3579 15.5893 18.3579Z" fill="#19BCE4"/>
</g>
<path d="M47.98 30C47.848 30 47.746 29.964 47.674 29.892C47.602 29.808 47.566 29.706 47.566 29.586V17.832C47.566 17.7 47.602 17.598 47.674 17.526C47.746 17.442 47.848 17.4 47.98 17.4H52.912C53.812 17.4 54.544 17.55 55.108 17.85C55.684 18.138 56.104 18.534 56.368 19.038C56.644 19.542 56.782 20.106 56.782 20.73C56.782 21.222 56.698 21.648 56.53 22.008C56.374 22.356 56.176 22.644 55.936 22.872C55.696 23.088 55.462 23.256 55.234 23.376C55.702 23.604 56.116 23.976 56.476 24.492C56.848 25.008 57.034 25.632 57.034 26.364C57.034 27.024 56.884 27.63 56.584 28.182C56.284 28.734 55.834 29.178 55.234 29.514C54.646 29.838 53.914 30 53.038 30H47.98ZM49.33 28.542H52.804C53.584 28.542 54.184 28.332 54.604 27.912C55.024 27.492 55.234 26.976 55.234 26.364C55.234 25.728 55.024 25.206 54.604 24.798C54.184 24.378 53.584 24.168 52.804 24.168H49.33V28.542ZM49.33 22.728H52.642C53.41 22.728 53.992 22.554 54.388 22.206C54.784 21.846 54.982 21.36 54.982 20.748C54.982 20.136 54.784 19.668 54.388 19.344C53.992 19.02 53.41 18.858 52.642 18.858H49.33V22.728ZM62.8474 30.18C62.0794 30.18 61.4254 30.012 60.8854 29.676C60.3574 29.328 59.9554 28.848 59.6794 28.236C59.4034 27.624 59.2654 26.922 59.2654 26.13V21.054C59.2654 20.934 59.3014 20.838 59.3734 20.766C59.4574 20.682 59.5594 20.64 59.6794 20.64H60.5794C60.6994 20.64 60.7954 20.682 60.8674 20.766C60.9514 20.838 60.9934 20.934 60.9934 21.054V26.04C60.9934 27.828 61.7734 28.722 63.3334 28.722C64.0774 28.722 64.6714 28.488 65.1154 28.02C65.5714 27.54 65.7994 26.88 65.7994 26.04V21.054C65.7994 20.934 65.8354 20.838 65.9074 20.766C65.9914 20.682 66.0934 20.64 66.2134 20.64H67.0954C67.2274 20.64 67.3294 20.682 67.4014 20.766C67.4734 20.838 67.5094 20.934 67.5094 21.054V29.586C67.5094 29.706 67.4734 29.808 67.4014 29.892C67.3294 29.964 67.2274 30 67.0954 30H66.2674C66.1474 30 66.0454 29.964 65.9614 29.892C65.8894 29.808 65.8534 29.706 65.8534 29.586V28.794C65.5294 29.214 65.1334 29.55 64.6654 29.802C64.2094 30.054 63.6034 30.18 62.8474 30.18ZM70.5976 30C70.4776 30 70.3756 29.964 70.2916 29.892C70.2196 29.808 70.1836 29.706 70.1836 29.586V21.054C70.1836 20.934 70.2196 20.838 70.2916 20.766C70.3756 20.682 70.4776 20.64 70.5976 20.64H71.4616C71.5816 20.64 71.6776 20.682 71.7496 20.766C71.8216 20.838 71.8576 20.934 71.8576 21.054V29.586C71.8576 29.706 71.8216 29.808 71.7496 29.892C71.6776 29.964 71.5816 30 71.4616 30H70.5976ZM70.4536 18.894C70.3336 18.894 70.2316 18.858 70.1476 18.786C70.0756 18.702 70.0396 18.6 70.0396 18.48V17.508C70.0396 17.388 70.0756 17.292 70.1476 17.22C70.2316 17.136 70.3336 17.094 70.4536 17.094H71.5876C71.7076 17.094 71.8036 17.136 71.8756 17.22C71.9596 17.292 72.0016 17.388 72.0016 17.508V18.48C72.0016 18.6 71.9596 18.702 71.8756 18.786C71.8036 18.858 71.7076 18.894 71.5876 18.894H70.4536ZM74.9749 30C74.8549 30 74.7529 29.964 74.6689 29.892C74.5969 29.808 74.5609 29.706 74.5609 29.586V17.634C74.5609 17.514 74.5969 17.418 74.6689 17.346C74.7529 17.262 74.8549 17.22 74.9749 17.22H75.8209C75.9529 17.22 76.0549 17.262 76.1269 17.346C76.1989 17.418 76.2349 17.514 76.2349 17.634V29.586C76.2349 29.706 76.1989 29.808 76.1269 29.892C76.0549 29.964 75.9529 30 75.8209 30H74.9749ZM82.3399 30.18C81.6799 30.18 81.1099 30.066 80.6299 29.838C80.1499 29.598 79.7539 29.28 79.4419 28.884C79.1419 28.476 78.9139 28.014 78.7579 27.498C78.6139 26.982 78.5299 26.436 78.5059 25.86C78.4939 25.668 78.4879 25.488 78.4879 25.32C78.4879 25.152 78.4939 24.972 78.5059 24.78C78.5299 24.216 78.6139 23.676 78.7579 23.16C78.9139 22.644 79.1419 22.182 79.4419 21.774C79.7539 21.366 80.1499 21.048 80.6299 20.82C81.1099 20.58 81.6799 20.46 82.3399 20.46C83.0479 20.46 83.6359 20.586 84.1039 20.838C84.5719 21.09 84.9559 21.402 85.2559 21.774V17.634C85.2559 17.514 85.2919 17.418 85.3639 17.346C85.4479 17.262 85.5499 17.22 85.6699 17.22H86.5339C86.6539 17.22 86.7499 17.262 86.8219 17.346C86.9059 17.418 86.9479 17.514 86.9479 17.634V29.586C86.9479 29.706 86.9059 29.808 86.8219 29.892C86.7499 29.964 86.6539 30 86.5339 30H85.7239C85.5919 30 85.4899 29.964 85.4179 29.892C85.3459 29.808 85.3099 29.706 85.3099 29.586V28.83C85.0099 29.214 84.6199 29.538 84.1399 29.802C83.6599 30.054 83.0599 30.18 82.3399 30.18ZM82.7179 28.722C83.3179 28.722 83.7979 28.584 84.1579 28.308C84.5179 28.032 84.7879 27.684 84.9679 27.264C85.1479 26.832 85.2439 26.394 85.2559 25.95C85.2679 25.758 85.2739 25.53 85.2739 25.266C85.2739 24.99 85.2679 24.756 85.2559 24.564C85.2439 24.144 85.1419 23.73 84.9499 23.322C84.7699 22.914 84.4939 22.578 84.1219 22.314C83.7619 22.05 83.2939 21.918 82.7179 21.918C82.1059 21.918 81.6199 22.056 81.2599 22.332C80.8999 22.596 80.6419 22.95 80.4859 23.394C80.3299 23.826 80.2399 24.294 80.2159 24.798C80.2039 25.146 80.2039 25.494 80.2159 25.842C80.2399 26.346 80.3299 26.82 80.4859 27.264C80.6419 27.696 80.8999 28.05 81.2599 28.326C81.6199 28.59 82.1059 28.722 82.7179 28.722ZM90.039 30C89.919 30 89.817 29.964 89.733 29.892C89.661 29.808 89.625 29.706 89.625 29.586V21.054C89.625 20.934 89.661 20.838 89.733 20.766C89.817 20.682 89.919 20.64 90.039 20.64H90.903C91.023 20.64 91.119 20.682 91.191 20.766C91.263 20.838 91.299 20.934 91.299 21.054V29.586C91.299 29.706 91.263 29.808 91.191 29.892C91.119 29.964 91.023 30 90.903 30H90.039ZM89.895 18.894C89.775 18.894 89.673 18.858 89.589 18.786C89.517 18.702 89.481 18.6 89.481 18.48V17.508C89.481 17.388 89.517 17.292 89.589 17.22C89.673 17.136 89.775 17.094 89.895 17.094H91.029C91.149 17.094 91.245 17.136 91.317 17.22C91.401 17.292 91.443 17.388 91.443 17.508V18.48C91.443 18.6 91.401 18.702 91.317 18.786C91.245 18.858 91.149 18.894 91.029 18.894H89.895ZM94.5741 30C94.4541 30 94.3521 29.964 94.2681 29.892C94.1961 29.808 94.1601 29.706 94.1601 29.586V21.054C94.1601 20.934 94.1961 20.838 94.2681 20.766C94.3521 20.682 94.4541 20.64 94.5741 20.64H95.4201C95.5401 20.64 95.6361 20.682 95.7081 20.766C95.7921 20.838 95.8341 20.934 95.8341 21.054V21.846C96.1461 21.438 96.5361 21.108 97.0041 20.856C97.4841 20.592 98.0961 20.46 98.8401 20.46C99.6201 20.46 100.28 20.634 100.82 20.982C101.372 21.318 101.786 21.792 102.062 22.404C102.338 23.004 102.476 23.706 102.476 24.51V29.586C102.476 29.706 102.44 29.808 102.368 29.892C102.296 29.964 102.2 30 102.08 30H101.18C101.06 30 100.958 29.964 100.874 29.892C100.802 29.808 100.766 29.706 100.766 29.586V24.6C100.766 23.76 100.562 23.106 100.154 22.638C99.7461 22.158 99.1461 21.918 98.3541 21.918C97.6101 21.918 97.0101 22.158 96.5541 22.638C96.1101 23.106 95.8881 23.76 95.8881 24.6V29.586C95.8881 29.706 95.8461 29.808 95.7621 29.892C95.6901 29.964 95.5941 30 95.4741 30H94.5741ZM108.91 33.96C108.094 33.96 107.422 33.852 106.894 33.636C106.378 33.42 105.97 33.156 105.67 32.844C105.382 32.544 105.172 32.238 105.04 31.926C104.92 31.626 104.854 31.386 104.842 31.206C104.83 31.086 104.866 30.984 104.95 30.9C105.046 30.816 105.148 30.774 105.256 30.774H106.12C106.228 30.774 106.318 30.798 106.39 30.846C106.462 30.894 106.522 30.996 106.57 31.152C106.642 31.332 106.75 31.53 106.894 31.746C107.038 31.974 107.26 32.166 107.56 32.322C107.86 32.49 108.28 32.574 108.82 32.574C109.384 32.574 109.858 32.496 110.242 32.34C110.626 32.196 110.914 31.932 111.106 31.548C111.31 31.176 111.412 30.66 111.412 30V28.776C111.124 29.148 110.746 29.46 110.278 29.712C109.81 29.952 109.222 30.072 108.514 30.072C107.842 30.072 107.266 29.958 106.786 29.73C106.306 29.49 105.91 29.172 105.598 28.776C105.298 28.368 105.07 27.906 104.914 27.39C104.77 26.874 104.686 26.334 104.662 25.77C104.65 25.434 104.65 25.104 104.662 24.78C104.686 24.216 104.77 23.676 104.914 23.16C105.07 22.644 105.298 22.182 105.598 21.774C105.91 21.366 106.306 21.048 106.786 20.82C107.266 20.58 107.842 20.46 108.514 20.46C109.234 20.46 109.828 20.598 110.296 20.874C110.776 21.138 111.166 21.462 111.466 21.846V21.072C111.466 20.952 111.502 20.85 111.574 20.766C111.658 20.682 111.76 20.64 111.88 20.64H112.708C112.828 20.64 112.93 20.682 113.014 20.766C113.098 20.85 113.14 20.952 113.14 21.072V29.802C113.14 30.606 113.002 31.32 112.726 31.944C112.462 32.568 112.018 33.06 111.394 33.42C110.782 33.78 109.954 33.96 108.91 33.96ZM108.874 28.632C109.474 28.632 109.954 28.494 110.314 28.218C110.686 27.942 110.956 27.594 111.124 27.174C111.304 26.754 111.4 26.328 111.412 25.896C111.424 25.728 111.43 25.524 111.43 25.284C111.43 25.032 111.424 24.822 111.412 24.654C111.4 24.222 111.304 23.796 111.124 23.376C110.956 22.956 110.686 22.608 110.314 22.332C109.954 22.056 109.474 21.918 108.874 21.918C108.274 21.918 107.794 22.056 107.434 22.332C107.074 22.596 106.816 22.95 106.66 23.394C106.504 23.826 106.414 24.294 106.39 24.798C106.378 25.11 106.378 25.428 106.39 25.752C106.414 26.256 106.504 26.73 106.66 27.174C106.816 27.606 107.074 27.96 107.434 28.236C107.794 28.5 108.274 28.632 108.874 28.632Z" fill="#02012B"/>
<defs>
<clipPath id="clip0_15503_16">
<rect width="40" height="40" fill="white"/>
</clipPath>
</defs>
</svg>
